<svg aria-hidden="true" style="width:0;height:0;position:absolute;overflow:hidden" xmlns="http://www.w3.org/2000/svg"><defs><symbol id="icon-play" viewBox="0 0 30 32"><path d="M0 32V0l30.476 16L0 32z"/></symbol><symbol id="icon-arrow-down" viewBox="0 0 32 32"><path d="M16.947 17.866a1.329 1.329 0 0 1-1.892 0l-6.109-6.119a1.334 1.334 0 1 0-1.892 1.879l.001.001 6.119 6.121c.724.723 1.723 1.17 2.827 1.17s2.103-.447 2.827-1.17l6.119-6.121a1.333 1.333 0 1 0-1.892-1.879l-6.108 6.119z"/></symbol><symbol id="icon-chocolate-covered" viewBox="0 0 32 32"><path d="m13.822 2.413 7.527 7.536.08-.08a.854.854 0 0 1 1.185-.012l.873.873c.305.305.315.77.083 1.094l-.004.007-.143.192 6.16 6.16c.55.55.55 1.43 0 1.98l-9.43 9.43c-.55.55-1.43.55-1.98 0l-4.447-4.447a.84.84 0 0 1-1.255.071l-2.6-2.6a.854.854 0 0 1-.012-1.185l.006-.007.077-.076-7.527-7.527c-.55-.55-.55-1.43 0-1.98l9.43-9.43c.55-.55 1.43-.55 1.98 0v.001zm6.582 8.48-1.756-1.755a.59.59 0 0 0-.85 0l-3.58 3.58a.603.603 0 0 0 0 .86l1.749 1.749.61-.61-1.565-1.565 3.21-3.22 1.569 1.574.613-.613zm-5.076 5.072-1.754-1.754a.59.59 0 0 0-.85 0l-3.59 3.59c-.24.23-.24.61 0 .85l1.752 1.752.616-.616-1.57-1.564 3.22-3.21 1.564 1.563.612-.611zM8.822 8.193l3.58 3.58c.24.24.62.24.85-.01l3.58-3.58a.579.579 0 0 0 .18-.42h.01c0-.15-.06-.31-.18-.43l-3.58-3.58a.604.604 0 0 0-.86 0l-3.58 3.59c-.24.23-.24.61 0 .85zm-5.07 5.07 3.58 3.58c.24.24.62.24.85 0l3.58-3.58a.579.579 0 0 0 .18-.42v-.01.001h.01c0-.16-.06-.31-.18-.43l-3.58-3.58a.59.59 0 0 0-.85 0l-3.59 3.59c-.24.23-.24.61 0 .85zm6.933 8.754 2.362 2.363 9.636-13.04-.655-.655-11.343 11.332z"/><path d="m13.822 2.413 7.527 7.536.08-.08a.854.854 0 0 1 1.185-.012l.873.873c.305.305.315.77.083 1.094l-.004.007-.143.192 6.16 6.16c.55.55.55 1.43 0 1.98l-9.43 9.43c-.55.55-1.43.55-1.98 0l-4.447-4.447a.84.84 0 0 1-1.255.071l-2.6-2.6a.854.854 0 0 1-.012-1.185l.006-.007.077-.076-7.527-7.527c-.55-.55-.55-1.43 0-1.98l9.43-9.43c.55-.55 1.43-.55 1.98 0v.001zm6.582 8.48-1.756-1.755a.59.59 0 0 0-.85 0l-3.58 3.58a.603.603 0 0 0 0 .86l1.749 1.749.61-.61-1.565-1.565 3.21-3.22 1.569 1.574.613-.613zm-5.076 5.072-1.754-1.754a.59.59 0 0 0-.85 0l-3.59 3.59c-.24.23-.24.61 0 .85l1.752 1.752.616-.616-1.57-1.564 3.22-3.21 1.564 1.563.612-.611zM8.822 8.193l3.58 3.58c.24.24.62.24.85-.01l3.58-3.58a.579.579 0 0 0 .18-.42h.01c0-.15-.06-.31-.18-.43l-3.58-3.58a.604.604 0 0 0-.86 0l-3.58 3.59c-.24.23-.24.61 0 .85zm-5.07 5.07 3.58 3.58c.24.24.62.24.85 0l3.58-3.58a.579.579 0 0 0 .18-.42v-.01.001h.01c0-.16-.06-.31-.18-.43l-3.58-3.58a.59.59 0 0 0-.85 0l-3.59 3.59c-.24.23-.24.61 0 .85zm6.933 8.754 2.362 2.363 9.636-13.04-.655-.655-11.343 11.332z"/></symbol><symbol id="icon-close" viewBox="0 0 8 8"><path d="M8 .806 7.194 0 4 3.194.806 0 0 .806 3.194 4 0 7.194.806 8 4 4.806 7.194 8 8 7.194 4.806 4 8 .806Z"/></symbol><symbol id="icon-Coin" viewBox="0 0 32 32"><path d="M16 2.667c-7.334 0-13.334 6-13.334 13.333s6 13.333 13.334 13.333c7.333 0 13.333-6 13.333-13.333S23.333 2.667 16 2.667zm0 24c-5.867 0-10.667-4.8-10.667-10.667S10.133 5.333 16 5.333c5.866 0 10.666 4.8 10.666 10.667S21.866 26.667 16 26.667z"/><path d="M17.733 14.667h-3.466c-.667 0-1.2-.534-1.2-1.2 0-.667.533-1.2 1.2-1.2H19.2c.8 0 1.333-.534 1.333-1.334S20 9.6 19.2 9.6h-1.867V8.4c0-.8-.533-1.333-1.333-1.333S14.667 7.6 14.667 8.4v1.2h-.4a3.87 3.87 0 0 0-3.867 3.867 3.87 3.87 0 0 0 3.867 3.866H17.6c.667 0 1.2.534 1.2 1.2 0 .667-.533 1.2-1.2 1.2h-4.933c-.8 0-1.334.534-1.334 1.334s.534 1.333 1.334 1.333h2v1.2c0 .8.533 1.333 1.333 1.333s1.333-.533 1.333-1.333v-1.2h.4a3.87 3.87 0 0 0 3.867-3.867 3.87 3.87 0 0 0-3.867-3.866z"/></symbol><symbol id="icon-instagram" viewBox="0 0 32 32"><path d="M8.727 2.909a5.818 5.818 0 0 0-5.818 5.818v14.545a5.818 5.818 0 0 0 5.818 5.818h14.545a5.818 5.818 0 0 0 5.818-5.818V8.727a5.818 5.818 0 0 0-5.818-5.818H8.727zM0 8.727A8.727 8.727 0 0 1 8.727 0h14.545a8.727 8.727 0 0 1 8.727 8.727v14.545a8.727 8.727 0 0 1-8.727 8.727H8.727A8.727 8.727 0 0 1 0 23.272V8.727z"/><path d="M16.703 11.621a4.36 4.36 0 0 0-4.538 2.354 4.36 4.36 0 0 0 .813 5.047 4.365 4.365 0 0 0 6.958-1.075 4.367 4.367 0 0 0-.788-5.095 4.36 4.36 0 0 0-2.445-1.231zm-3.99-2.139a7.272 7.272 0 1 1-1.794 11.597 7.272 7.272 0 0 1 1.793-11.598zM22.545 8c0-.803.651-1.455 1.455-1.455h.015a1.455 1.455 0 0 1 0 2.91H24A1.455 1.455 0 0 1 22.545 8z"/></symbol><symbol id="icon-menu" viewBox="0 0 45 32"><path d="M1.2 3.2a2 2 0 0 1 2-2h38.4a2 2 0 1 1 0 4H3.2a2 2 0 0 1-2-2zm0 12.8a2 2 0 0 1 2-2h38.4a2 2 0 1 1 0 4H3.2a2 2 0 0 1-2-2zm0 12.8a2 2 0 0 1 2-2h38.4a2 2 0 1 1 0 4H3.2a2 2 0 0 1-2-2z"/></symbol><symbol id="icon-spoon" viewBox="0 0 32 32"><path d="M15.451 14.106a5.127 5.127 0 0 1-1.176-3.278v-.004c0-4.324 5.18-8.642 10.362-8.642a5.184 5.184 0 0 1 5.181 5.182c0 5.182-4.318 10.364-8.646 10.364h-.003a5.13 5.13 0 0 1-3.287-1.184l.009.007L5.132 29.312a1.73 1.73 0 0 1-2.442-2.446l-.001.001 12.762-12.761z"/></symbol><symbol id="icon-twitter" viewBox="0 0 37 32"><path d="M22.134 2.058a8.353 8.353 0 0 1 8.545 1.577 15.11 15.11 0 0 0 3.491-1.832 1.523 1.523 0 0 1 2.359 1.606 13.279 13.279 0 0 1-3.04 5.751c.023.246.034.493.035.74v.005c0 9.295-4.475 16.114-10.903 19.536-6.391 3.401-14.559 3.364-21.837-.68a1.523 1.523 0 0 1 .801-2.855 16.22 16.22 0 0 0 7.429-1.475c-2.29-1.413-3.94-3.091-5.086-4.902-1.529-2.415-2.107-4.973-2.211-7.27-.104-2.29.26-4.353.642-5.832.192-.743.392-1.348.545-1.773.077-.213.143-.381.191-.5l.058-.14.018-.041.005-.01.034-.073 1.363.681 1.247-.876a14.724 14.724 0 0 0 10.943 6.219 8.355 8.355 0 0 1 5.372-7.857zM5.188 7.686c-.28 1.221-.503 2.77-.428 4.436.086 1.893.556 3.907 1.741 5.778 1.179 1.861 3.123 3.674 6.308 5.09a1.523 1.523 0 0 1 .237 2.653 19.27 19.27 0 0 1-5.488 2.573c4.831 1.231 9.671.643 13.631-1.464 5.381-2.864 9.287-8.615 9.287-16.843a5.294 5.294 0 0 0-.095-.981c-.096-.5.065-1.014.427-1.371.34-.335.654-.692.942-1.067-.345.127-.694.244-1.047.351a1.523 1.523 0 0 1-1.589-.459c-.713-.82-1.66-1.401-2.714-1.664s-2.163-.197-3.178.19a5.297 5.297 0 0 0-3.411 5.025v1.544c0 .826-.658 1.502-1.484 1.523A17.774 17.774 0 0 1 5.19 7.688z"/></symbol></defs></svg>